<?xml version="1.0" encoding="iso-8859-1"?>
<!-- Generator: Adobe Illustrator 19.0.0, SVG Export Plug-In . SVG Version: 6.00 Build 0)  -->
<svg version="1.1" id="Capa_1" xmlns="http://www.w3.org/2000/svg" xmlns:xlink="http://www.w3.org/1999/xlink" x="0px" y="0px"
	 viewBox="0 0 512 512" style="enable-background:new 0 0 512 512;" xml:space="preserve">
<g>
	<g>
		<g>
			<path d="M175.944,237.59c-11.054,0-20.014,8.954-20.014,20V383c0,11.046,8.96,20,20.014,20c11.054,0,20.014-8.954,20.014-20
				V257.59C195.958,246.544,186.998,237.59,175.944,237.59z"/>
			<path d="M256,193c-11.054,0-20.014,8.954-20.014,20v170c0,11.046,8.96,20,20.014,20s20.014-8.954,20.014-20V213
				C276.014,201.954,267.054,193,256,193z"/>
			<path d="M437.138,105.858l-100.07-100C333.269,2.063,328.072,0,322.916,0H89.014C77.96,0,69,8.954,69,20v472
				c0,11.046,8.96,20,20.014,20h333.972C434.04,512,443,503.046,443,492V120C443,114.6,440.767,109.484,437.138,105.858z
				 M342.93,68.284L374.668,100H342.93V68.284z M402.971,472H109.028V40h193.873v80c0,11.046,8.96,20,20.014,20h80.056V472z"/>
			<path d="M316.042,292.368V383c0,11.046,8.96,20,20.014,20s20.014-8.954,20.014-20v-90.632c0-11.046-8.96-20-20.014-20
				C325.002,272.368,316.042,281.322,316.042,292.368z"/>
		</g>
	</g>
</g>
<g>
</g>
<g>
</g>
<g>
</g>
<g>
</g>
<g>
</g>
<g>
</g>
<g>
</g>
<g>
</g>
<g>
</g>
<g>
</g>
<g>
</g>
<g>
</g>
<g>
</g>
<g>
</g>
<g>
</g>
</svg>
